<svg width="24" height="25" viewBox="0 0 24 25" fill="none" xmlns="http://www.w3.org/2000/svg">
<g clip-path="url(#clip0_20_305)">
<path d="M18.9309 5.66774C17.6562 5.08286 16.2892 4.65192 14.86 4.40509C14.8339 4.40032 14.8079 4.41224 14.7945 4.43603C14.6187 4.74872 14.424 5.15661 14.2876 5.47724C12.7504 5.24708 11.221 5.24708 9.7153 5.47724C9.5789 5.1495 9.3771 4.74872 9.2005 4.43603C9.1871 4.41302 9.16108 4.4011 9.13507 4.40509C7.70663 4.6511 6.33968 5.08204 5.06413 5.66774C5.05308 5.67251 5.04362 5.68044 5.03733 5.69075C2.44452 9.56439 1.73421 13.3428 2.08265 17.0744C2.08421 17.0926 2.09448 17.1101 2.10866 17.1212C3.81933 18.3775 5.47644 19.1401 7.10273 19.6457C7.12874 19.6536 7.15632 19.6441 7.17288 19.6227C7.55757 19.0973 7.9005 18.5434 8.19452 17.9608C8.21187 17.9267 8.1953 17.8863 8.15983 17.8727C7.61589 17.6664 7.09796 17.4148 6.59972 17.1292C6.5603 17.1061 6.55714 17.0498 6.59343 17.0228C6.69827 16.9442 6.80315 16.8625 6.90327 16.7799C6.9214 16.7649 6.94663 16.7617 6.96792 16.7712C10.241 18.2656 13.7846 18.2656 17.0191 16.7712C17.0404 16.7609 17.0656 16.7641 17.0845 16.7791C17.1847 16.8617 17.2895 16.9442 17.3951 17.0227C17.4314 17.0497 17.429 17.1061 17.3896 17.1291C16.8914 17.4204 16.3735 17.6664 15.8287 17.8719C15.7933 17.8854 15.7775 17.9267 15.7949 17.9608C16.0952 18.5425 16.4382 19.0965 16.8157 19.6218C16.8315 19.6441 16.8599 19.6536 16.8859 19.6456C18.5201 19.1401 20.1772 18.3774 21.8878 17.1211C21.9028 17.11 21.9123 17.0934 21.9139 17.0751C22.3309 12.761 21.2154 9.01357 18.9568 5.69149C18.9514 5.68044 18.9419 5.67251 18.9309 5.66774ZM8.68339 14.8022C7.69796 14.8022 6.88597 13.8975 6.88597 12.7865C6.88597 11.6754 7.68218 10.7707 8.68339 10.7707C9.69241 10.7707 10.4966 11.6833 10.4808 12.7865C10.4808 13.8975 9.68452 14.8022 8.68339 14.8022ZM15.329 14.8022C14.3436 14.8022 13.5316 13.8975 13.5316 12.7865C13.5316 11.6754 14.3278 10.7707 15.329 10.7707C16.338 10.7707 17.1421 11.6833 17.1264 12.7865C17.1264 13.8975 16.3381 14.8022 15.329 14.8022Z" fill="white"/>
</g>
<defs>
<clipPath id="clip0_20_305">
<rect width="20" height="20" fill="white" transform="translate(2 2.02637)"/>
</clipPath>
</defs>
</svg>
