<svg width="24" height="25" viewBox="0 0 24 25" fill="none" xmlns="http://www.w3.org/2000/svg">
<path d="M10.802 17.7964C10.8943 17.7966 10.9857 17.8149 11.0709 17.8503C11.1562 17.8858 11.2336 17.9377 11.2988 18.003C11.364 18.0684 11.4156 18.146 11.4509 18.2313C11.4861 18.3167 11.5041 18.4081 11.504 18.5004C11.5038 18.5928 11.4855 18.6841 11.4501 18.7694C11.4146 18.8546 11.3627 18.932 11.2974 18.9972C11.232 19.0624 11.1544 19.1141 11.0691 19.1493C10.9837 19.1845 10.8923 19.2026 10.8 19.2024C10.6135 19.2022 10.4348 19.1278 10.3032 18.9958C10.1715 18.8638 10.0977 18.6849 10.098 18.4984C10.0982 18.312 10.1726 18.1333 10.3046 18.0016C10.4366 17.87 10.6155 17.7962 10.802 17.7964ZM21.826 13.4494C21.7337 13.4494 21.6423 13.4311 21.557 13.3957C21.4717 13.3603 21.3943 13.3085 21.329 13.2432C21.2638 13.1778 21.2121 13.1003 21.1768 13.015C21.1415 12.9297 21.1234 12.8383 21.1235 12.7459C21.1235 12.6536 21.1418 12.5622 21.1772 12.4769C21.2126 12.3917 21.2644 12.3142 21.3297 12.249C21.3951 12.1837 21.4726 12.132 21.5579 12.0968C21.6432 12.0615 21.7347 12.0434 21.827 12.0434C22.0134 12.0436 22.1922 12.1178 22.3239 12.2497C22.4557 12.3816 22.5296 12.5605 22.5295 12.7469C22.5293 12.9334 22.4552 13.1121 22.3232 13.2439C22.1913 13.3756 22.0124 13.4496 21.826 13.4494ZM21.826 10.5734C21.2496 10.574 20.6969 10.8032 20.2893 11.2108C19.8817 11.6184 19.6525 12.171 19.652 12.7474C19.652 12.9804 19.691 13.2124 19.767 13.4384L12.586 17.2614C12.3869 16.9723 12.1204 16.736 11.8096 16.5727C11.4989 16.4095 11.153 16.3243 10.802 16.3244C9.97298 16.3244 9.21798 16.7994 8.85198 17.5404L2.40098 14.1384C1.71898 13.7804 1.20898 12.6584 1.26298 11.6364C1.29098 11.1034 1.47498 10.6894 1.75598 10.5294C1.93398 10.4294 2.14798 10.4374 2.37598 10.5564L2.41798 10.5794C4.12798 11.4794 9.72198 14.4264 9.95798 14.5354C10.321 14.7044 10.523 14.7724 11.143 14.4784L22.707 8.46443C22.877 8.40043 23.075 8.23743 23.075 7.99043C23.075 7.64843 22.721 7.51343 22.72 7.51343C22.062 7.19843 21.051 6.72543 20.065 6.26343C17.957 5.27643 15.568 4.15843 14.519 3.60843C13.613 3.13443 12.884 3.53443 12.754 3.61443L12.502 3.73943C7.77998 6.07443 1.45998 9.20443 1.09998 9.42343C0.456982 9.81543 0.0579816 10.5964 0.00598162 11.5654C-0.0740184 13.1024 0.708982 14.7054 1.82998 15.2924L8.65198 18.8104C8.72713 19.3272 8.9857 19.7997 9.38045 20.1416C9.7752 20.4834 10.2798 20.6719 10.802 20.6724C11.3723 20.6715 11.9195 20.4467 12.3258 20.0465C12.7322 19.6464 12.9653 19.1027 12.975 18.5324L20.489 14.4594C20.869 14.7574 21.342 14.9204 21.826 14.9204C22.4024 14.9199 22.9551 14.6907 23.3626 14.2831C23.7702 13.8755 23.9995 13.3229 24 12.7464C23.9995 12.17 23.7702 11.6174 23.3626 11.2098C22.9551 10.8022 22.4024 10.573 21.826 10.5724" fill="white"/>
</svg>
