<svg width="24" height="25" viewBox="0 0 24 25" fill="none" xmlns="http://www.w3.org/2000/svg">
<path d="M2.35326 11.6695L6.96166 13.3895L8.74539 19.1259C8.85953 19.4933 9.30879 19.6291 9.60699 19.3853L12.1758 17.2912C12.4451 17.0718 12.8286 17.0609 13.11 17.2651L17.7432 20.6289C18.0622 20.8608 18.5141 20.686 18.5941 20.3005L21.9882 3.97445C22.0755 3.55339 21.6618 3.20212 21.2609 3.35719L2.34786 10.6533C1.88113 10.8333 1.88519 11.4941 2.35326 11.6695ZM8.45793 12.4739L17.4645 6.92672C17.6263 6.82732 17.7929 7.04619 17.6539 7.17512L10.2209 14.0845C9.95959 14.3277 9.79106 14.6531 9.74333 15.0064L9.49013 16.8828C9.45659 17.1333 9.10466 17.1582 9.03553 16.9157L8.06173 13.4941C7.95019 13.1038 8.11273 12.6869 8.45793 12.4739Z" fill="white"/>
</svg>
