<svg width="32" height="33" viewBox="0 0 32 33" fill="none" xmlns="http://www.w3.org/2000/svg">
<path d="M19 16.19C19 14.53 17.66 13.19 16 13.19C14.34 13.19 13 14.53 13 16.19C13 17.85 14.34 19.19 16 19.19C16.41 19.19 16.81 19.11 17.17 18.95" stroke="white" stroke-opacity="0.5" stroke-width="1.5" stroke-miterlimit="10" stroke-linecap="round" stroke-linejoin="round"/>
<path d="M10.8809 24.7701L11.9709 25.4001C12.7609 25.8701 13.7809 25.5901 14.2509 24.8001L14.3609 24.6101C15.2609 23.0401 16.7409 23.0401 17.6509 24.6101L17.7609 24.8001C18.2309 25.5901 19.2509 25.8701 20.0409 25.4001L21.7709 24.4101C22.6809 23.8901 22.9909 22.7201 22.4709 21.8201C21.5609 20.2501 22.3009 18.9701 24.1109 18.9701C25.1509 18.9701 26.0109 18.1201 26.0109 17.0701V15.3101C26.0109 14.2701 25.1609 13.4101 24.1109 13.4101C23.1009 13.4101 22.4209 13.0101 22.1809 12.3801C21.9909 11.8901 22.0709 11.2501 22.4709 10.5601C22.9909 9.65007 22.6809 8.49007 21.7709 7.97007L20.9609 7.51007" stroke="white" stroke-opacity="0.5" stroke-width="1.5" stroke-miterlimit="10" stroke-linecap="round" stroke-linejoin="round"/>
<path d="M17.64 7.76994C16.74 9.33994 15.26 9.33994 14.35 7.76994L14.24 7.57994C13.78 6.78994 12.76 6.50994 11.97 6.97994L10.24 7.96994C9.33 8.48994 9.02 9.65994 9.54 10.5699C10.45 12.1299 9.71 13.4099 7.9 13.4099C6.86 13.4099 6 14.2599 6 15.3099V17.0699C6 18.1099 6.85 18.9699 7.9 18.9699C9.71 18.9699 10.45 20.2499 9.54 21.8199" stroke="white" stroke-opacity="0.5" stroke-width="1.5" stroke-miterlimit="10" stroke-linecap="round" stroke-linejoin="round"/>
</svg>
