<svg width="21" height="8" viewBox="0 0 21 8" fill="none" xmlns="http://www.w3.org/2000/svg">
<path d="M20.8536 4.35355C21.0488 4.15829 21.0488 3.84171 20.8536 3.64645L17.6716 0.464466C17.4763 0.269204 17.1597 0.269204 16.9645 0.464466C16.7692 0.659728 16.7692 0.976311 16.9645 1.17157L19.7929 4L16.9645 6.82843C16.7692 7.02369 16.7692 7.34027 16.9645 7.53553C17.1597 7.7308 17.4763 7.7308 17.6716 7.53553L20.8536 4.35355ZM0.146446 3.64645C-0.0488148 3.84171 -0.0488148 4.15829 0.146446 4.35355L3.32843 7.53553C3.52369 7.7308 3.84027 7.7308 4.03553 7.53553C4.2308 7.34027 4.2308 7.02369 4.03553 6.82843L1.20711 4L4.03553 1.17157C4.2308 0.976311 4.2308 0.659728 4.03553 0.464466C3.84027 0.269204 3.52369 0.269204 3.32843 0.464466L0.146446 3.64645ZM20.5 3.5L0.5 3.5V4.5L20.5 4.5V3.5Z" fill="white" fill-opacity="0.5"/>
</svg>
