<svg width="32" height="32" viewBox="0 0 32 32" fill="none" xmlns="http://www.w3.org/2000/svg">
<rect width="32" height="32" rx="16" fill="url(#paint0_linear_10_9)"/>
<path d="M22.4 10H9.6C8.7176 10 8 10.7288 8 11.625V21.375C8 22.2712 8.7176 23 9.6 23H22.4C23.2824 23 24 22.2712 24 21.375V11.625C24 10.7288 23.2824 10 22.4 10ZM11.6 12.4375C11.9183 12.4375 12.2235 12.5659 12.4485 12.7945C12.6736 13.023 12.8 13.333 12.8 13.6562C12.8 13.9795 12.6736 14.2895 12.4485 14.518C12.2235 14.7466 11.9183 14.875 11.6 14.875C11.2817 14.875 10.9765 14.7466 10.7515 14.518C10.5264 14.2895 10.4 13.9795 10.4 13.6562C10.4 13.333 10.5264 13.023 10.7515 12.7945C10.9765 12.5659 11.2817 12.4375 11.6 12.4375ZM16 20.5625H10.4L13.6 16.5L14.8 18.125L17.2 14.875L21.6 20.5625H16Z" fill="white"/>
<defs>
<linearGradient id="paint0_linear_10_9" x1="33.5" y1="9" x2="-10" y2="34" gradientUnits="userSpaceOnUse">
<stop stop-color="#D259FF"/>
<stop offset="1" stop-color="#6535FF"/>
</linearGradient>
</defs>
</svg>
